<svg width="14" height="15" viewBox="0 0 14 15" fill="none" xmlns="http://www.w3.org/2000/svg">
<path d="M13.125 2.49999H11.875H9.99996V0.62499C9.99999 0.27999 9.72062 0 9.37497 0H4.37499C4.02938 0 3.75 0.27999 3.75 0.62499V2.49999H1.875H0.62499C0.279375 2.49999 0 2.77998 0 3.12498C0 3.46998 0.279346 3.75 0.62499 3.75H1.24998V13.125C1.24998 14.1587 2.09124 15 3.12498 15H10.625C11.6587 15 12.5 14.1587 12.5 13.125V3.75H13.125C13.4706 3.75 13.75 3.47001 13.75 3.12501C13.75 2.78001 13.4706 2.49999 13.125 2.49999ZM4.99998 1.25001H8.74998V2.50002H4.99998V1.25001ZM11.25 13.125C11.25 13.4694 10.97 13.75 10.625 13.75H3.12498C2.77998 13.75 2.49999 13.4694 2.49999 13.125V3.75H4.37499H9.375H11.25V13.125H11.25Z" fill="black"/>
<path d="M5.00023 5C4.65462 5 4.37524 5.27999 4.37524 5.62499V11.25C4.37524 11.595 4.65462 11.875 5.00023 11.875C5.34585 11.875 5.62522 11.595 5.62522 11.25V5.62499C5.62522 5.27999 5.34585 5 5.00023 5Z" fill="black"/>
<path d="M8.75024 5C8.40462 5 8.12524 5.27999 8.12524 5.62499V11.25C8.12524 11.595 8.40462 11.875 8.75024 11.875C9.09585 11.875 9.37523 11.595 9.37523 11.25V5.62499C9.37523 5.27999 9.09585 5 8.75024 5Z" fill="black"/>
</svg>
